<svg xmlns="http://www.w3.org/2000/svg" viewBox="0 0 760.0 774.5" class="trip-map" role="img" aria-label="Geographic map of the Baltic route with distances">
<rect x="0" y="0" width="100%" height="100%" fill="#eaf0f2"/>
<g transform="translate(-851.406 5651.332) scale(91.8482)">
<path d="M15.288,-60.504 L14.300,-60.424 L13.342,-60.057 L12.456,-59.846 L12.140,-60.392 L11.613,-60.720ZM13.242,-57.793 L13.305,-58.383 L13.105,-58.257 L12.759,-58.613 L12.712,-59.187 L13.400,-59.466 L14.087,-59.611 L14.678,-59.446 L15.240,-59.475 L15.322,-59.301 L14.934,-58.725 L15.096,-57.792 L14.862,-57.475 L14.413,-57.476 L13.944,-57.848 L13.706,-57.970 L13.242,-57.793ZM11.468,-56.031 L11.487,-56.784 L11.754,-57.412 L12.268,-57.753 L12.700,-57.006 L13.137,-57.026 L13.242,-57.793 L13.706,-57.970 L13.944,-57.848 L14.413,-57.476 L14.862,-57.475 L15.125,-57.244 L15.171,-56.759 L15.346,-56.169 L14.761,-55.783 L14.430,-55.615 L13.906,-56.100 L13.616,-56.165 L13.540,-56.373 L13.005,-56.274 L12.092,-56.338 L11.468,-56.031ZM12.380,-54.328 L12.337,-54.583 L12.395,-54.857 L12.154,-55.015 L11.584,-55.190 L11.468,-56.031 L12.092,-56.338 L13.005,-56.274 L13.540,-56.373 L13.616,-56.165 L13.906,-56.100 L14.430,-55.615 L14.481,-55.167 L14.034,-54.847 L13.908,-54.282 L13.317,-53.906 L12.790,-53.912 L12.660,-54.221 L12.380,-54.328Z" fill="#dfe7d8" stroke="#b9c6ab" stroke-width="0.007" stroke-linejoin="round"/>
</g>
<line x1="396.1" y1="124.9" x2="386.9" y2="192.1" stroke="#3f5e57" stroke-width="2.4" stroke-dasharray="3 3" stroke-linecap="round"/>
<text x="395.5" y="158.5" class="m-dist">⛴ ferry · ~85 km</text>
<line x1="386.9" y1="192.1" x2="354.5" y2="420.9" stroke="#3f5e57" stroke-width="2.4" stroke-dasharray="0" stroke-linecap="round"/>
<text x="374.7" y="306.5" class="m-dist">🚌 bus · ~310 km</text>
<line x1="354.5" y1="420.9" x2="320.0" y2="506.5" stroke="#a9802f" stroke-width="2.4" stroke-dasharray="0" stroke-linecap="round"/>
<text x="341.2" y="463.7" class="m-dist">🚗 ~140 km</text>
<line x1="320.0" y1="506.5" x2="413.2" y2="628.4" stroke="#a9802f" stroke-width="2.4" stroke-dasharray="0" stroke-linecap="round"/>
<text x="370.6" y="567.4" class="m-dist">🚗 ~215 km</text>
<line x1="354.5" y1="420.9" x2="391.7" y2="401.3" stroke="#a9802f" stroke-width="1.4" stroke-dasharray="2 2" stroke-linecap="round" opacity="0.8"/>
<text x="376.1" y="409.1" class="m-dist sm">≈50 km</text>
<line x1="391.7" y1="401.3" x2="413.0" y2="387.3" stroke="#a9802f" stroke-width="1.4" stroke-dasharray="2 2" stroke-linecap="round" opacity="0.8"/>
<text x="405.3" y="392.3" class="m-dist sm">≈40 km</text>
<line x1="413.2" y1="628.4" x2="395.9" y2="631.6" stroke="#a9802f" stroke-width="1.4" stroke-dasharray="2 2" stroke-linecap="round" opacity="0.8"/>
<text x="407.5" y="628.0" class="m-dist sm">≈28 km</text>
<text x="390.1" y="114.9" class="m-air" text-anchor="end">✈ from Paris / SLC</text>
<text x="421.2" y="632.4" class="m-air">✈ to Amsterdam / SLC</text>
<circle cx="396.1" cy="124.9" r="4.4" fill="#a9802f" stroke="#7a5a1f" stroke-width="1.4"/>
<text x="403.1" y="128.4" class="m-city" text-anchor="start">Helsinki</text>
<text x="403.1" y="137.9" class="m-date" text-anchor="start">Jul 9–10</text>
<circle cx="386.9" cy="192.1" r="4.4" fill="#a9802f" stroke="#7a5a1f" stroke-width="1.4"/>
<text x="393.9" y="195.6" class="m-city" text-anchor="start">Tallinn</text>
<text x="393.9" y="205.1" class="m-date" text-anchor="start">Jul 10–14</text>
<circle cx="354.5" cy="420.9" r="4.4" fill="#a9802f" stroke="#7a5a1f" stroke-width="1.4"/>
<text x="347.5" y="424.4" class="m-city" text-anchor="end">Riga</text>
<text x="347.5" y="433.9" class="m-date" text-anchor="end">Jul 14–17</text>
<circle cx="413.2" cy="628.4" r="4.4" fill="#a9802f" stroke="#7a5a1f" stroke-width="1.4"/>
<text x="420.2" y="631.9" class="m-city" text-anchor="start">Vilnius</text>
<text x="420.2" y="641.4" class="m-date" text-anchor="start">Jul 17–19</text>
<circle cx="391.7" cy="401.3" r="2.8" fill="#fffdf8" stroke="#7a5a1f" stroke-width="1.4"/>
<text x="384.7" y="404.8" class="m-stop" text-anchor="end">Sigulda · Turaida</text>
<circle cx="413.0" cy="387.3" r="2.8" fill="#fffdf8" stroke="#7a5a1f" stroke-width="1.4"/>
<text x="406.0" y="390.8" class="m-stop" text-anchor="end">Cēsis</text>
<circle cx="320.0" cy="506.5" r="2.8" fill="#fffdf8" stroke="#7a5a1f" stroke-width="1.4"/>
<text x="313.0" y="510.0" class="m-stop" text-anchor="end">Hill of Crosses</text>
<circle cx="395.9" cy="631.6" r="2.8" fill="#fffdf8" stroke="#7a5a1f" stroke-width="1.4"/>
<text x="402.9" y="635.1" class="m-stop" text-anchor="start">Trakai</text>
<line x1="14" y1="758.4828227032684" x2="97.1" y2="758.4828227032684" stroke="#5c5448" stroke-width="2"/>
<line x1="14" y1="755.4828227032684" x2="14" y2="761.4828227032684" stroke="#5c5448" stroke-width="2"/>
<line x1="97.1" y1="755.4828227032684" x2="97.1" y2="761.4828227032684" stroke="#5c5448" stroke-width="2"/>
<text x="14.0" y="752.5" class="m-scale">100 km</text>
<style>
.trip-map text{font-family:Georgia,serif}
.m-city{font-weight:700;font-size:13px;fill:#2b2620}
.m-stop{font-style:italic;font-size:10.5px;fill:#4a4236}
.m-date{font-size:9px;fill:#6e8a82;font-family:system-ui,sans-serif}
.m-dist{font-size:9.5px;fill:#3f5e57;font-family:system-ui,sans-serif;font-weight:600}
.m-dist.sm{font-size:8px;fill:#8a6a2a}
.m-air{font-size:9px;fill:#9a9386;font-style:italic;font-family:system-ui,sans-serif}
.m-scale{font-size:8.5px;fill:#5c5448;font-family:system-ui,sans-serif}
</style>
</svg>